<svg id="Layer_1" data-name="Layer 1" xmlns="http://www.w3.org/2000/svg" viewBox="0 0 96 96"><path d="M71.3,74.06a1,1,0,0,1-1-1V17a3,3,0,0,0-3-3h-11a1,1,0,0,1,0-2h11a5,5,0,0,1,5,5V73.06A1,1,0,0,1,71.3,74.06Z"/><path d="M61.33,86.51H18.74a5,5,0,0,1-5-5V17a5,5,0,0,1,5-5h11a1,1,0,0,1,0,2h-11a3,3,0,0,0-3,3V81.5a3,3,0,0,0,3,3H61.33a1,1,0,0,1,0,2Z"/><path d="M71.3,94a11,11,0,1,1,11-11A11,11,0,0,1,71.3,94Zm0-19.94a9,9,0,1,0,9,9A9,9,0,0,0,71.3,74.06Z"/><path d="M61.33,29.43H24.7a1,1,0,1,1,0-2H61.33a1,1,0,0,1,0,2Z"/><path d="M61.33,37.34H24.7a1,1,0,0,1,0-2H61.33a1,1,0,0,1,0,2Z"/><path d="M61.33,45.25H24.7a1,1,0,0,1,0-2H61.33a1,1,0,0,1,0,2Z"/><path d="M61.33,53.16H24.7a1,1,0,0,1,0-2H61.33a1,1,0,0,1,0,2Z"/><path d="M61.33,61.07H24.7a1,1,0,1,1,0-2H61.33a1,1,0,0,1,0,2Z"/><path d="M61.33,69H24.7a1,1,0,0,1,0-2H61.33a1,1,0,0,1,0,2Z"/><path d="M56.27,18.14H29.76a1,1,0,0,1-1-1v-8a1,1,0,0,1,1-1H56.27a1,1,0,0,1,1,1v8A1,1,0,0,1,56.27,18.14Zm-25.51-2H55.27v-6H30.76Z"/><path d="M35.15,10.16a1,1,0,0,1-.95-1.33C35.68,4.68,39.14,2,43,2s7.31,2.67,8.8,6.81a1,1,0,0,1-1.88.67C48.74,6.15,46,4,43,4s-5.74,2.16-6.93,5.5A1,1,0,0,1,35.15,10.16Z"/><path d="M69.87,86.9h0a1,1,0,0,1-.7-.3L66.3,83.74a1,1,0,0,1,0-1.42,1,1,0,0,1,1.41,0l2.16,2.16,5-5a1,1,0,1,1,1.41,1.41L70.58,86.6A1,1,0,0,1,69.87,86.9Z"/></svg>